<svg width="36" height="36" viewBox="0 0 36 36" fill="none" xmlns="http://www.w3.org/2000/svg">
<circle cx="18" cy="18" r="18" fill="#ECEBF6"/>
<path fill-rule="evenodd" clip-rule="evenodd" d="M23.6014 19.0534C23.8399 19.18 24.0238 19.38 24.1533 19.58C24.4053 19.9934 24.3849 20.5 24.1396 20.9467L23.6627 21.7467C23.4106 22.1734 22.9405 22.44 22.4568 22.44C22.2184 22.44 21.9526 22.3734 21.7346 22.24C21.5575 22.1267 21.3531 22.0867 21.1351 22.0867C20.4606 22.0867 19.8951 22.64 19.8747 23.3C19.8747 24.0667 19.2479 24.6667 18.4644 24.6667H17.5378C16.7475 24.6667 16.1207 24.0667 16.1207 23.3C16.107 22.64 15.5416 22.0867 14.8671 22.0867C14.6422 22.0867 14.4378 22.1267 14.2675 22.24C14.0495 22.3734 13.777 22.44 13.5453 22.44C13.0548 22.44 12.5847 22.1734 12.3326 21.7467L11.8625 20.9467C11.6104 20.5134 11.5968 19.9934 11.8489 19.58C11.9579 19.38 12.1623 19.18 12.3939 19.0534C12.5847 18.96 12.7073 18.8067 12.8232 18.6267C13.1638 18.0534 12.9594 17.3 12.3803 16.96C11.7058 16.58 11.4878 15.7334 11.8761 15.0734L12.3326 14.2867C12.7278 13.6267 13.5726 13.3934 14.2539 13.78C14.8466 14.1 15.6165 13.8867 15.964 13.32C16.073 13.1334 16.1343 12.9334 16.1207 12.7334C16.107 12.4734 16.182 12.2267 16.3114 12.0267C16.5635 11.6134 17.02 11.3467 17.5173 11.3334H18.478C18.9822 11.3334 19.4386 11.6134 19.6907 12.0267C19.8133 12.2267 19.8951 12.4734 19.8747 12.7334C19.861 12.9334 19.9224 13.1334 20.0314 13.32C20.3788 13.8867 21.1487 14.1 21.7483 13.78C22.4227 13.3934 23.2744 13.6267 23.6627 14.2867L24.1192 15.0734C24.5143 15.7334 24.2963 16.58 23.615 16.96C23.0359 17.3 22.8315 18.0534 23.179 18.6267C23.288 18.8067 23.4106 18.96 23.6014 19.0534ZM16.073 18.0067C16.073 19.0534 16.9382 19.8867 18.0079 19.8867C19.0775 19.8867 19.9224 19.0534 19.9224 18.0067C19.9224 16.96 19.0775 16.12 18.0079 16.12C16.9382 16.12 16.073 16.96 16.073 18.0067Z" fill="#573DDE"/>
</svg>
