<svg width="36" height="36" viewBox="0 0 36 36" fill="none" xmlns="http://www.w3.org/2000/svg">
<circle cx="18" cy="18" r="18" fill="#FFE7ED"/>
<path fill-rule="evenodd" clip-rule="evenodd" d="M20.7723 15.4885C20.7723 17.055 19.5235 18.311 17.9661 18.311C16.4087 18.311 15.1599 17.055 15.1599 15.4885C15.1599 13.9215 16.4087 12.6666 17.9661 12.6666C19.5235 12.6666 20.7723 13.9215 20.7723 15.4885ZM17.9661 23.3333C15.6786 23.3333 13.7255 22.9706 13.7255 21.5201C13.7255 20.0689 15.6661 19.693 17.9661 19.693C20.2536 19.693 22.2067 20.0557 22.2067 21.5069C22.2067 22.9574 20.2661 23.3333 17.9661 23.3333ZM21.9715 15.5394C21.9715 16.338 21.7333 17.0819 21.3154 17.7003C21.2725 17.7639 21.3107 17.8498 21.3865 17.863C21.4909 17.881 21.599 17.8912 21.7088 17.8942C22.8042 17.923 23.7874 17.214 24.059 16.1465C24.4613 14.5608 23.28 13.1372 21.7757 13.1372C21.6121 13.1372 21.4557 13.1546 21.3035 13.1859C21.2826 13.1907 21.2605 13.2003 21.2486 13.2189C21.2343 13.2417 21.245 13.2723 21.2593 13.2921C21.7112 13.9292 21.9715 14.7061 21.9715 15.5394ZM23.7856 19.0083C24.5216 19.153 25.0057 19.4484 25.2063 19.8777C25.3758 20.2302 25.3758 20.639 25.2063 20.9909C24.8994 21.6567 23.9103 21.8705 23.5259 21.9257C23.4465 21.9377 23.3826 21.8687 23.391 21.7888C23.5874 19.9438 22.0252 19.069 21.6211 18.8678C21.6038 18.8588 21.6002 18.845 21.602 18.8366C21.6032 18.8306 21.6103 18.821 21.6235 18.8192C22.498 18.803 23.4381 18.9231 23.7856 19.0083ZM14.2915 17.8942C14.4013 17.8912 14.5088 17.8816 14.6138 17.8629C14.6896 17.8497 14.7278 17.7639 14.6849 17.7002C14.267 17.0818 14.0288 16.3379 14.0288 15.5394C14.0288 14.706 14.2891 13.9291 14.741 13.2921C14.7553 13.2723 14.7655 13.2416 14.7517 13.2188C14.7398 13.2008 14.7171 13.1906 14.6968 13.1858C14.544 13.1546 14.3876 13.1372 14.224 13.1372C12.7198 13.1372 11.5384 14.5607 11.9414 16.1464C12.213 17.2139 13.1961 17.923 14.2915 17.8942ZM14.398 18.8363C14.3998 18.8453 14.3962 18.8585 14.3795 18.8681C13.9748 19.0692 12.4126 19.944 12.609 21.7885C12.6174 21.8689 12.5541 21.9374 12.4747 21.9259C12.0903 21.8707 11.1012 21.657 10.7943 20.9911C10.6242 20.6387 10.6242 20.2304 10.7943 19.878C10.9949 19.4487 11.4784 19.1533 12.2145 19.008C12.5625 18.9233 13.502 18.8032 14.3771 18.8195C14.3903 18.8213 14.3968 18.8309 14.398 18.8363Z" fill="#C0395C"/>
</svg>
