<svg width="24" height="24" viewBox="0 0 24 24" fill="none" xmlns="http://www.w3.org/2000/svg">
<path d="M6.68748 12.0001C6.68748 11.0092 6.96048 10.081 7.43478 9.28619V5.91479H4.06339C2.72531 7.6526 2 9.77052 2 12.0001C2 14.2297 2.72531 16.3476 4.06339 18.0854H7.43478V14.714C6.96048 13.9192 6.68748 12.991 6.68748 12.0001Z" fill="#FBBD00"/>
<path d="M11.9999 17.3127L9.65619 19.6564L11.9999 22.0002C14.2296 22.0002 16.3474 21.2748 18.0852 19.9368V16.569H14.7175C13.9157 17.045 12.9836 17.3127 11.9999 17.3127Z" fill="#0F9D58"/>
<path d="M7.43481 14.7137L4.06342 18.0851C4.32834 18.4292 4.61681 18.7587 4.92896 19.0709C6.8177 20.9596 9.3289 21.9998 12 21.9998V17.3123C10.0616 17.3123 8.36261 16.2685 7.43481 14.7137Z" fill="#31AA52"/>
<path d="M21.9999 12C21.9999 11.3916 21.9448 10.7821 21.8361 10.1884L21.7482 9.70801H11.9999V14.3955H16.7441C16.2834 15.3119 15.5751 16.0596 14.7174 16.5688L18.0852 19.9366C18.4293 19.6717 18.7588 19.3832 19.071 19.0711C20.9597 17.1823 21.9999 14.6711 21.9999 12Z" fill="#3C79E6"/>
<path d="M15.7564 8.24345L16.1707 8.65774L19.4853 5.34323L19.071 4.92893C17.1822 3.04019 14.671 2 11.9999 2L9.65619 4.34374L11.9999 6.68748C13.4189 6.68748 14.753 7.24005 15.7564 8.24345Z" fill="#CF2D48"/>
<path d="M12 6.68748V2C9.32894 2 6.81774 3.04019 4.92896 4.92889C4.61681 5.24104 4.32834 5.57053 4.06342 5.91463L7.43481 9.28602C8.36265 7.73122 10.0616 6.68748 12 6.68748Z" fill="#EB4132"/>
</svg>
