<svg width="36" height="36" viewBox="0 0 36 36" fill="none" xmlns="http://www.w3.org/2000/svg">
<circle cx="18" cy="18" r="18" fill="#E6F9FF"/>
<path fill-rule="evenodd" clip-rule="evenodd" d="M17.9975 11.6761C15.0413 11.6761 13.7569 14.353 13.7569 16.1225C13.7569 17.445 13.9486 17.0558 13.2166 18.6692C12.3226 20.9682 15.9175 21.9079 17.9975 21.9079C20.0769 21.9079 23.6718 20.9682 22.7785 18.6692C22.0464 17.0558 22.2381 17.445 22.2381 16.1225C22.2381 14.353 20.9531 11.6761 17.9975 11.6761Z" fill="#3396CF" stroke="#3396CF" stroke-width="1.5" stroke-linecap="round" stroke-linejoin="round"/>
<path fill-rule="evenodd" clip-rule="evenodd" d="M19.5373 23.6748C18.6744 24.6386 17.3284 24.65 16.4573 23.6748H19.5373Z" fill="#3396CF"/>
<path d="M19.5373 23.6748C18.6744 24.6386 17.3284 24.65 16.4573 23.6748" stroke="#3396CF" stroke-width="1.5" stroke-linecap="round" stroke-linejoin="round"/>
</svg>
