<svg width="12" height="12" viewBox="0 0 12 12" fill="none" xmlns="http://www.w3.org/2000/svg">
<path fill-rule="evenodd" clip-rule="evenodd" d="M6 1.5C4.98192 1.5 4.88567 3.27326 4.27956 3.89979C3.67344 4.52631 1.7891 3.80996 1.52729 4.92201C1.26604 6.03464 2.96118 6.41214 3.17018 7.36671C3.38029 8.32129 2.34461 9.66246 3.22958 10.3299C4.11455 10.9968 5.06717 9.48735 6 9.48735C6.93282 9.48735 7.88544 10.9968 8.77041 10.3299C9.65538 9.66246 8.62026 8.32129 8.82981 7.36671C9.03937 6.41214 10.734 6.03464 10.4727 4.92201C10.2114 3.80996 8.32655 4.52631 7.72099 3.89979C7.11487 3.27326 7.01807 1.5 6 1.5Z" stroke="#333333" stroke-width="1.5" stroke-linecap="round" stroke-linejoin="round"/>
</svg>
